<?xml version="1.0" encoding="UTF-8" standalone="no"?>
<!-- Created with Inkscape (http://www.inkscape.org/) -->

<svg
   xmlns:dc="http://purl.org/dc/elements/1.1/"
   xmlns:cc="http://creativecommons.org/ns#"
   xmlns:rdf="http://www.w3.org/1999/02/22-rdf-syntax-ns#"
   xmlns:svg="http://www.w3.org/2000/svg"
   xmlns="http://www.w3.org/2000/svg"
   xmlns:sodipodi="http://sodipodi.sourceforge.net/DTD/sodipodi-0.dtd"
   xmlns:inkscape="http://www.inkscape.org/namespaces/inkscape"
   version="1.0"
   width="250"
   height="57.212402"
   id="svg24885"
   inkscape:version="0.91 r13725"
   sodipodi:docname="Bosch-Logo (1).svg">
  <metadata
     id="metadata1648">
    <rdf:RDF>
      <cc:Work
         rdf:about="">
        <dc:format>image/svg+xml</dc:format>
        <dc:type
           rdf:resource="http://purl.org/dc/dcmitype/StillImage" />
        <dc:title></dc:title>
      </cc:Work>
    </rdf:RDF>
  </metadata>
  <sodipodi:namedview
     pagecolor="white"
     bordercolor="#666666"
     borderopacity="1"
     objecttolerance="10"
     gridtolerance="10"
     guidetolerance="10"
     inkscape:pageopacity="0"
     inkscape:pageshadow="2"
     inkscape:window-width="1280"
     inkscape:window-height="738"
     id="namedview1646"
     showgrid="false"
     fit-margin-top="0"
     fit-margin-left="0"
     fit-margin-right="0"
     fit-margin-bottom="0"
     inkscape:zoom="0.36732437"
     inkscape:cx="153.58964"
     inkscape:cy="67.760837"
     inkscape:window-x="-8"
     inkscape:window-y="-8"
     inkscape:window-maximized="1"
     inkscape:current-layer="svg24885" />
  <defs
     id="defs24887" />
  <g
     id="g26531"
     transform="matrix(0.40694283,0,0,0.40694283,-115.38992,-156.77321)">
    <g
       transform="matrix(6.450046,0,0,-6.450046,-2654.615,2342.933)"
       style="fill:none;stroke:none"
       id="q57">
      <g
         transform="matrix(0.335998,0,0,0.335998,407.9057,266.2093)"
         id="xfrm58">
        <path
           d="m 176.16,66.626 c 0,3.564 -2.63,6.03 -8.15,6.03 l -11.06,0 0,-12.153 11.33,0 c 4.62,0 7.88,1.645 7.88,6.123 z m -1.99,24.12 c 0,3.473 -2.36,5.849 -5.89,5.849 l -11.33,0 0,-11.513 11.06,0 c 3.98,0 6.16,2.923 6.16,5.664 z m 18.48,-25.855 c 0,-10.418 -9.6,-17.271 -19.3,-17.271 l -31.62,0 0,61.86 28.99,0 c 11.15,0 19.21,-5.57 19.21,-16.996 0,-9.778 -8.51,-12.701 -8.51,-12.701 0,-0.092 11.23,-2.651 11.23,-14.892"
           style="fill:white;fill-rule:evenodd;stroke:none"
           id="path3190"
           inkscape:connector-curvature="0" />
      </g>
    </g>
    <g
       transform="matrix(6.450046,0,0,-6.450046,-2654.615,2342.933)"
       style="fill:none;stroke:none"
       id="q59">
      <g
         transform="matrix(0.335998,0,0,0.335998,407.9057,266.2093)"
         id="xfrm60">
        <path
           d="m 239.98,78.594 c 0,9.686 -4.44,17.544 -13.22,17.544 -8.79,0 -13.14,-7.858 -13.14,-17.544 0,-9.776 4.35,-17.633 13.14,-17.633 8.78,0 13.22,7.857 13.22,17.633 z m 15.22,0 c 0,-18.182 -10.42,-32.436 -28.44,-32.436 -17.94,0 -28.45,14.254 -28.45,32.436 0,18.092 10.51,32.436 28.44,32.436 18.03,0 28.45,-14.344 28.45,-32.436"
           style="fill:white;fill-rule:evenodd;stroke:none"
           id="path3194"
           inkscape:connector-curvature="0" />
      </g>
    </g>
    <g
       transform="matrix(6.450046,0,0,-6.450046,-2654.615,2342.933)"
       style="fill:none;stroke:none"
       id="q61">
      <g
         transform="matrix(0.335998,0,0,0.335998,407.9057,266.2093)"
         id="xfrm62">
        <path
           d="m 308.33,66.352 c 0,-13.615 -12.32,-20.194 -23.91,-20.194 -13.41,0 -20.3,5.117 -25.73,11.604 l 9.87,9.687 c 4.17,-5.301 9.61,-7.951 15.68,-7.951 4.98,0 8.33,2.467 8.33,6.123 0,3.928 -2.96,5.152 -11.06,6.853 l -2.17,0.456 c -9.75,2.048 -17.76,7.583 -17.76,18.639 0,12.151 9.88,19.461 22.93,19.461 11.05,0 18.21,-4.75 22.56,-9.68 l -9.61,-9.507 c -2.99,3.199 -7.52,5.757 -12.68,5.757 -3.53,0 -7.52,-1.645 -7.52,-5.757 0,-3.746 4.15,-5.105 9.42,-6.213 l 2.18,-0.458 c 8.82,-1.851 19.47,-4.568 19.47,-18.82"
           style="fill:white;fill-rule:evenodd;stroke:none"
           id="path3198"
           inkscape:connector-curvature="0" />
      </g>
    </g>
    <g
       transform="matrix(6.450046,0,0,-6.450046,-2654.615,2342.933)"
       style="fill:none;stroke:none"
       id="q63">
      <g
         transform="matrix(0.335998,0,0,0.335998,407.9057,266.2093)"
         id="xfrm64">
        <path
           d="m 367.17,59.59 c -6.34,-9.137 -12.23,-13.432 -24.46,-13.432 -17.39,0 -28.63,14.437 -28.63,32.802 0,17.452 10.15,31.98 28.81,31.98 10.24,0 17.58,-4.02 23.83,-13.432 l -12.5,-8.315 c -2.54,4.387 -5.8,6.945 -11.24,6.945 -6.88,0 -13.5,-6.155 -13.5,-17.178 0,-12.352 7.16,-17.999 13.96,-17.999 5.88,0 8.6,2.924 11.14,7.127 l 12.59,-8.498"
           style="fill:white;fill-rule:evenodd;stroke:none"
           id="path3202"
           inkscape:connector-curvature="0" />
      </g>
    </g>
    <g
       transform="matrix(6.450046,0,0,-6.450046,-2654.615,2342.933)"
       style="fill:none;stroke:none"
       id="q65">
      <g
         transform="matrix(0.335998,0,0,0.335998,407.9057,266.2093)"
         id="xfrm66">
        <path
           d="m 425.2,47.62 -16.31,0 0,24.396 -18.76,0 0,-24.396 -16.21,0 0,61.86 16.21,0 0,-22.753 18.76,0 0,22.753 16.31,0 0,-61.86"
           style="fill:white;fill-rule:evenodd;stroke:none"
           id="path3206"
           inkscape:connector-curvature="0" />
      </g>
    </g>
  </g>
</svg>
