<?xml version="1.0" encoding="UTF-8" standalone="no"?>
<!-- Created with Inkscape (http://www.inkscape.org/) -->

<svg
   xmlns:dc="http://purl.org/dc/elements/1.1/"
   xmlns:cc="http://creativecommons.org/ns#"
   xmlns:rdf="http://www.w3.org/1999/02/22-rdf-syntax-ns#"
   xmlns:svg="http://www.w3.org/2000/svg"
   xmlns="http://www.w3.org/2000/svg"
   xmlns:sodipodi="http://sodipodi.sourceforge.net/DTD/sodipodi-0.dtd"
   xmlns:inkscape="http://www.inkscape.org/namespaces/inkscape"
   width="250"
   height="53.206451"
   id="svg4015"
   version="1.1"
   inkscape:version="0.48.3.1 r9886"
   sodipodi:docname="Neues Dokument 4">
  <defs
     id="defs4017" />
  <sodipodi:namedview
     id="base"
     pagecolor="#ffffff"
     bordercolor="#666666"
     borderopacity="1.0"
     inkscape:pageopacity="0.0"
     inkscape:pageshadow="2"
     inkscape:zoom="0.98994949"
     inkscape:cx="67.168989"
     inkscape:cy="-127.74218"
     inkscape:document-units="px"
     inkscape:current-layer="layer1"
     showgrid="false"
     fit-margin-top="0"
     fit-margin-left="0"
     fit-margin-right="0"
     fit-margin-bottom="0"
     inkscape:window-width="1229"
     inkscape:window-height="1000"
     inkscape:window-x="51"
     inkscape:window-y="24"
     inkscape:window-maximized="1" />
  <metadata
     id="metadata4020">
    <rdf:RDF>
      <cc:Work
         rdf:about="">
        <dc:format>image/svg+xml</dc:format>
        <dc:type
           rdf:resource="http://purl.org/dc/dcmitype/StillImage" />
        <dc:title></dc:title>
      </cc:Work>
    </rdf:RDF>
  </metadata>
  <g
     inkscape:label="Ebene 1"
     inkscape:groupmode="layer"
     id="layer1"
     transform="translate(-277.08145,-494.67468)">
    <path
       inkscape:connector-curvature="0"
       d="m 313.10863,494.67468 c 0,0 6.52475,6.52337 9.52399,9.88705 v 2.55251 c -2.79559,-2.95638 -8.59264,-5.43072 -13.9817,-5.43072 -12.19854,0 -19.85777,9.20068 -19.85777,20.5877 0,11.34554 7.25398,20.54621 19.85777,20.54621 6.28098,0 11.30594,-2.96049 14.10221,-5.99864 v 2.42873 c -3.81008,5.22981 -10.7795,8.63361 -19.45116,8.63361 -15.52194,0 -26.22052,-11.26445 -26.22052,-25.60991 0,-14.34666 11.87369,-25.57168 26.22052,-25.57168 3.64808,0 6.92982,0.60804 9.80666,1.62253 z"
       id="path3956" />
    <path
       inkscape:connector-curvature="0"
       d="m 306.05676,522.19082 c 0,-8.26847 0.77004,-11.91586 3.56648,-11.91586 2.79695,0 3.56562,3.64739 3.56562,11.91586 0,8.26659 -0.76867,11.91141 -3.56562,11.91141 -2.79644,0 -3.56648,-3.64482 -3.56648,-11.91141 m -10.05043,0.0804 c 0,8.18619 5.02479,14.83093 13.61691,14.83093 8.59058,0 13.61605,-6.64474 13.61605,-14.83093 0,-8.18619 -5.02547,-14.83213 -13.61605,-14.83213 -8.59212,0 -13.61691,6.64594 -13.61691,14.83213"
       id="path3958" />
    <path
       inkscape:connector-curvature="0"
       d="m 342.40811,517.24575 c 0,-2.43079 -0.77021,-4.33583 -2.87684,-4.33583 -2.10801,0 -2.95896,1.90504 -2.95896,4.33583 v 16.00604 h 2.47211 v 2.55388 h -13.53514 v -2.55388 h 2.51325 v -22.0448 h -2.51325 v -2.47091 h 10.65847 v 4.13235 h 0.12051 c 1.01381,-2.26879 3.3642,-4.6593 7.13365,-4.6593 3.97155,0 6.40286,2.43079 7.1729,5.63145 0.28336,1.25688 0.36427,3.32477 0.36427,4.37612 v 15.03509 h 3.24112 v 2.55388 h -11.79209 z"
       id="path3960" />
    <path
       inkscape:connector-curvature="0"
       d="m 365.67088,511.20699 v 20.02046 c 0,1.37619 0.89054,1.70087 1.74235,1.70087 0.80947,0 1.58036,-0.28251 1.58036,-0.28251 v 2.47091 c 0,0 -1.62133,1.01243 -5.22792,1.01243 -4.21515,0 -6.68743,-2.06789 -6.68743,-6.44178 v -18.48038 h -2.87804 v -1.82275 c 3.2034,-2.55251 6.93256,-5.47083 9.88963,-7.94174 h 1.58105 v 7.29358 h 3.32271 v 2.47091 z"
       id="path3962" />
    <path
       inkscape:connector-curvature="0"
       d="m 373.0668,501.56181 c 0,5.31415 10.45687,5.31415 10.45687,0 0,-5.31415 -10.45687,-5.31415 -10.45687,0 m 0.8926,9.64518 h -2.47347 v -2.47091 h 11.02325 v 24.51571 h 2.51308 v 2.55388 h -13.53633 v -2.55388 h 2.47347 z"
       id="path3964" />
    <path
       inkscape:connector-curvature="0"
       d="m 404.08926,517.24575 c 0,-2.43079 -0.77021,-4.33583 -2.87684,-4.33583 -2.10801,0 -2.95896,1.90504 -2.95896,4.33583 v 16.00604 h 2.47211 v 2.55388 h -13.53514 v -2.55388 h 2.51325 v -22.0448 h -2.51325 v -2.47091 h 10.65847 v 4.13235 h 0.12051 c 1.01381,-2.26879 3.3642,-4.6593 7.13365,-4.6593 3.97155,0 6.40286,2.43079 7.1729,5.63145 0.28336,1.25688 0.36427,3.32477 0.36427,4.37612 v 15.03509 h 3.24112 v 2.55388 h -11.79209 z"
       id="path3966" />
    <path
       inkscape:connector-curvature="0"
       d="m 437.92718,528.59249 c -1.21711,1.41836 -3.12163,2.51119 -5.95699,2.51119 -2.47365,0 -6.28269,-1.37757 -6.44383,-7.65718 h 14.46648 c 0.0411,-0.48684 0.0806,-1.45984 0.0806,-1.94737 0,-7.61621 -3.1182,-13.29 -11.26428,-13.29 -8.18687,0 -12.36122,6.28235 -12.36122,14.10237 0,7.82123 4.17435,13.97964 12.36122,13.97964 5.26787,0 8.59178,-2.4709 10.53573,-6.36069 z m -12.40082,-7.78232 c 0,-7.13227 0.56741,-9.80546 2.99821,-9.80546 2.47193,0 2.95878,2.59485 3.03935,9.80546 z"
       id="path3968" />
    <path
       inkscape:connector-curvature="0"
       d="m 458.7559,517.24575 c 0,-2.43079 -0.77021,-4.33583 -2.87684,-4.33583 -2.108,0 -2.95895,1.90504 -2.95895,4.33583 v 16.00604 h 2.47211 v 2.55388 h -13.53514 v -2.55388 h 2.51325 v -22.0448 h -2.51325 v -2.47091 h 10.65847 v 4.13235 h 0.12051 c 1.0138,-2.26879 3.3642,-4.6593 7.13364,-4.6593 3.97156,0 6.40287,2.43079 7.1729,5.63145 0.28337,1.25688 0.36428,3.32477 0.36428,4.37612 v 15.03509 h 3.24112 v 2.55388 h -11.7921 z"
       id="path3970" />
    <path
       inkscape:connector-curvature="0"
       d="m 482.01816,511.20699 v 20.02046 c 0,1.37619 0.89055,1.70087 1.74235,1.70087 0.80947,0 1.58036,-0.28251 1.58036,-0.28251 v 2.47091 c 0,0 -1.62133,1.01243 -5.22792,1.01243 -4.21515,0 -6.68743,-2.06789 -6.68743,-6.44178 v -18.48038 h -2.87804 v -1.82275 c 3.2034,-2.55251 6.93257,-5.47083 9.88963,-7.94174 h 1.58105 v 7.29358 h 3.32271 v 2.47091 z"
       id="path3972" />
    <path
       inkscape:connector-curvature="0"
       d="m 500.90155,522.39173 c -0.2417,-0.24308 -0.76969,-0.56587 -1.86338,-0.56587 -2.5525,0 -3.11992,2.51325 -3.11992,5.10604 0,2.55251 0.7697,4.61834 2.95879,4.61834 1.05254,0 1.70052,-0.44656 2.02451,-0.81032 z m 0.36685,10.16957 -0.12342,0 c -1.57882,2.23194 -3.68734,3.72984 -6.92897,3.72984 -4.4176,0 -7.1741,-3.76996 -7.1741,-8.26778 0,-5.42729 3.8519,-8.87463 10.01117,-8.87463 2.51308,0 3.84847,0.57118 3.84847,0.57118 v -1.70412 c 0,-3.2826 -2.02451,-5.02547 -4.9833,-5.02547 -4.0936,0 -6.20041,3.1626 -6.20041,3.1626 l -1.49824,-1.82344 c 2.71364,-4.21532 6.8861,-6.12035 10.77743,-6.12035 6.56726,0 10.45688,3.89047 10.45688,9.80666 v 15.236 h 2.75478 v 2.55388 H 501.2684 z"
       id="path3974" />
    <path
       inkscape:connector-curvature="0"
       d="m 515.2069,501.19805 h -2.95707 v -2.47091 h 11.50942 v 34.52465 h 3.3222 v 2.55388 H 515.2069 z"
       id="path3976" />
  </g>
</svg>
