<?xml version="1.0" encoding="UTF-8" standalone="no"?>
<!-- Created with Inkscape (http://www.inkscape.org/) -->
<svg
   xmlns:svg="http://www.w3.org/2000/svg"
   xmlns="http://www.w3.org/2000/svg"
   version="1.0"
   width="107.38419"
   height="38.975128"
   id="svg2429">
  <defs
     id="defs2431" />
  <g
     transform="translate(-386.3079,-412.87462)"
     id="layer1">
    <path
       d="M 411.6251,430.60707 L 419.48548,430.60707 C 419.48548,430.60707 419.79648,429.42544 418.3966,427.65394 C 415.63148,424.79657 412.52548,426.69157 412.52548,426.69157 C 411.00248,427.49919 409.04648,430.85519 410.19398,435.67107 C 411.6251,440.48796 417.1236,441.47917 420.5401,440.36101 C 422.80135,439.62126 424.1051,437.99044 424.73248,436.96744 C 424.93423,436.13982 425.07823,435.31219 425.16898,434.48944 L 411.6251,434.48944 L 411.6251,430.60707 z"
       id="path2425"
       style="fill:white;fill-opacity:1;fill-rule:nonzero;stroke:none" />
    <g
       id="g2449">
      <path
         d="M 404.75459,412.90302 C 396.46005,413.34421 389.05993,419.08469 386.91084,427.55927 C 384.26484,437.99039 390.57443,448.60028 401.00459,451.24677 C 408.41522,453.12664 415.92984,450.48652 420.59834,445.05927 C 418.54559,445.54999 416.14322,445.58271 413.53584,444.68427 C 404.80397,441.66913 403.20384,433.58864 405.37959,427.93427 C 407.55247,422.27952 415.16084,419.64377 420.44209,423.43427 C 424.96862,426.68065 425.21728,432.46466 425.19209,434.05927 C 426.0251,424.70183 419.99704,415.85175 410.59834,413.46552 C 408.6427,412.96958 406.66872,412.80121 404.75459,412.90302 z M 395.25459,430.09052 C 396.63936,430.09052 397.75459,431.20664 397.75459,432.59052 C 397.75459,433.97527 396.63936,435.09052 395.25459,435.09052 C 393.87081,435.09052 392.72334,433.97527 392.72334,432.59052 C 392.72335,431.20664 393.87081,430.09052 395.25459,430.09052 z"
         id="path2423"
         style="fill:white;fill-opacity:1;fill-rule:nonzero;stroke:none" />
      <g
         id="g2444">
        <path
           d="M 483.44209,421.68427 C 481.89122,421.74527 480.30634,422.00064 479.00459,422.49677 C 476.27647,423.61302 474.91084,426.26827 474.91084,429.05927 L 479.84834,429.05927 C 479.72385,427.63352 480.79459,426.33752 481.78584,425.96552 C 482.22134,425.78089 482.82097,425.65302 483.44209,425.65302 C 484.68135,425.59189 485.94884,425.90889 486.81709,426.71552 C 487.37609,427.27264 487.53397,428.00302 487.34834,428.80927 C 487.03684,430.11152 485.61247,430.56014 483.44209,430.87177 C 482.69747,430.99477 481.83859,431.06077 480.91084,431.18427 C 478.30734,431.49439 474.58997,432.77852 473.72334,436.55927 C 473.41322,438.04852 473.64972,440.79364 475.94209,442.59052 C 477.49247,443.76972 479.67509,444.31026 481.34834,444.24677 C 482.09297,444.24677 482.85234,444.18378 483.47334,444.05927 C 485.20685,443.68818 486.54859,442.89277 487.84834,441.84052 C 487.91084,442.15058 488.22584,443.31171 488.47334,443.62177 L 493.69209,443.62177 C 492.88797,442.01044 493.00459,439.67303 493.00459,438.37177 L 493.00459,431.68427 C 492.94359,429.94839 492.93909,428.20289 492.56709,426.59052 C 492.19347,424.97777 490.78196,422.30589 486.19209,421.74677 C 485.32485,421.68577 484.37134,421.68427 483.44209,421.68427 z M 487.66084,432.84052 C 487.66084,433.33664 487.72084,436.87564 487.41084,437.55927 C 486.85172,439.04602 485.30097,439.90741 483.44209,440.09052 C 483.07197,440.15156 482.65397,440.21404 482.22334,440.15302 C 480.98309,440.15302 479.93909,439.55189 479.50459,438.62177 C 479.00797,437.69152 479.31809,436.74339 479.62959,436.18427 C 480.37322,434.88302 481.67259,434.64914 483.47334,434.27802 C 484.0291,434.21702 484.63684,434.08864 485.31709,433.90302 C 486.68184,433.59302 486.97872,433.33664 487.66084,432.84052 z"
           id="path2417"
           style="fill:white;fill-opacity:1;fill-rule:nonzero;stroke:none" />
        <path
           d="M 447.17885,424.72669 C 445.00835,422.30782 441.65973,421.25257 438.2501,421.74869 C 435.14998,422.24532 432.9181,423.98157 431.36773,426.46157 C 430.5611,427.88782 430.00398,429.50019 429.75498,431.05044 C 429.25885,434.83369 430.3131,441.15691 436.94885,443.63737 C 440.04748,444.81657 443.9551,444.38199 446.93073,442.21159 C 448.6046,440.97136 450.28085,438.18082 450.40298,436.44494 L 444.88535,436.44494 C 444.69835,437.18957 444.26523,438.18082 443.2726,438.92544 C 441.0396,440.53678 438.4976,439.48454 437.38148,438.67644 C 435.7081,437.43619 435.14998,435.39032 435.08798,432.47619 C 435.08798,430.92694 435.5216,428.44694 436.82435,427.26769 C 438.2501,426.08907 439.98635,425.78044 441.65973,426.27557 C 443.4596,426.83419 444.82285,428.81807 444.69835,430.61544 L 436.88635,430.61544 L 436.88635,434.52357 L 450.40298,434.52357 C 450.52748,433.09632 450.28085,431.73307 450.03185,430.43032 C 449.59823,428.50894 448.41998,426.15157 447.17885,424.72669 z"
           id="path2415"
           style="fill:white;fill-opacity:1;fill-rule:nonzero;stroke:none" />
        <path
           d="M 463.17735,430.49282 C 461.50248,430.18282 459.5811,430.12032 458.58998,429.00557 C 458.15535,428.50894 458.15535,427.64082 458.40298,427.14419 C 459.08548,425.78044 460.76035,425.34582 462.37173,425.46894 C 463.79748,425.46894 465.10023,426.21407 465.65785,427.45432 C 465.90685,427.95082 465.96935,428.50894 466.02985,429.06657 L 470.61723,429.06657 C 470.67973,427.26769 469.9361,425.40782 468.82035,424.22919 C 467.3936,422.74182 464.04498,421.19157 459.8926,421.81169 C 457.65823,422.12082 454.68273,423.42444 453.6891,426.33707 C 452.82085,429.06657 453.6891,431.54557 455.36335,432.84832 C 457.47273,434.46257 461.44148,434.89469 463.05385,435.26819 C 464.9141,435.63932 465.84335,435.88832 466.15335,436.94057 C 466.34048,437.62419 466.27798,438.42982 465.84335,438.98894 C 464.6651,440.53678 462.2471,440.66129 460.32573,440.10222 C 458.71348,439.60904 458.03085,438.30532 457.72073,436.56707 L 452.88435,436.56707 C 452.88435,438.18082 453.37998,439.29894 454.1871,440.60026 C 455.24035,442.27507 457.10073,443.63737 459.82923,444.07194 C 462.80473,444.56998 465.84335,444.19646 467.6426,443.20524 C 468.69585,442.58268 469.50298,441.77946 470.1851,440.91032 C 471.17685,439.67008 472.04548,436.56707 470.49423,433.84007 C 469.13098,431.48407 466.02985,430.98894 463.17735,430.49282"
           id="path23"
           style="fill:white;fill-opacity:1;fill-rule:nonzero;stroke:none" />
      </g>
    </g>
  </g>
</svg>
