<?xml version="1.0" encoding="UTF-8"?>
<!DOCTYPE svg PUBLIC "-//W3C//DTD SVG 1.1//EN" "http://www.w3.org/Graphics/SVG/1.1/DTD/svg11.dtd">
<svg width="350pt" height="350pt" viewBox="0 0 350 350" version="1.1" xmlns="http://www.w3.org/2000/svg">
<g id="#fefffeff">
<path fill="#fefffe" opacity="1.00" d=" M 160.47 18.62 C 190.53 16.17 221.27 22.83 247.67 37.38 C 292.69 61.64 324.59 108.96 329.12 160.03 C 332.53 191.50 325.81 223.93 310.50 251.61 C 295.18 279.49 271.21 302.58 242.68 316.70 C 220.29 327.99 195.09 333.69 170.01 333.14 C 135.66 332.85 101.65 320.56 74.76 299.23 C 51.62 280.87 33.72 255.99 23.92 228.10 C 8.64 185.21 13.14 135.63 36.45 96.45 C 52.10 69.29 76.23 47.19 104.45 33.59 C 121.99 25.20 141.07 20.01 160.47 18.62 M 132.62 33.59 C 105.51 40.91 80.20 56.86 64.12 80.16 C 53.29 95.48 47.06 113.62 43.86 131.98 C 42.34 143.44 41.71 155.94 47.44 166.41 C 50.09 171.61 54.72 175.54 57.00 180.94 C 59.17 185.73 57.63 192.21 52.96 194.94 C 48.58 198.08 42.39 196.88 38.43 193.61 C 32.72 189.13 30.30 181.82 29.08 174.92 C 26.67 159.38 29.80 143.66 33.76 128.66 C 30.66 129.95 31.11 134.24 29.94 136.96 C 23.17 163.21 23.22 191.27 30.64 217.38 C 37.65 242.32 51.96 265.48 72.62 281.36 C 88.18 293.67 107.25 300.67 126.55 304.46 C 138.19 306.42 150.85 307.20 161.76 301.90 C 167.17 299.19 171.22 294.47 176.52 291.60 C 180.98 289.28 186.79 290.04 190.28 293.72 C 194.31 297.74 194.38 304.63 191.10 309.13 C 187.56 313.95 181.86 316.63 176.23 318.18 C 163.81 321.29 150.82 319.89 138.39 317.63 C 133.84 316.91 129.53 314.89 124.88 314.90 C 127.37 317.36 131.02 317.79 134.23 318.75 C 158.62 324.76 184.51 324.80 208.94 318.96 C 237.05 312.20 263.65 296.38 280.35 272.41 C 291.17 257.53 297.13 239.75 300.81 221.89 C 302.77 208.70 303.76 193.79 295.75 182.29 C 292.02 176.80 286.03 171.52 287.23 164.19 C 287.74 157.34 295.41 153.01 301.71 155.24 C 309.94 157.91 313.79 166.73 315.47 174.55 C 318.67 190.75 315.49 207.40 311.21 223.09 C 312.33 222.92 313.02 222.29 313.28 221.21 C 320.66 198.17 321.94 173.32 317.68 149.54 C 312.79 121.67 299.91 94.49 278.48 75.56 C 265.62 63.83 249.77 55.56 233.01 50.99 C 219.05 46.84 203.94 43.97 189.53 47.54 C 182.44 49.09 176.93 54.06 171.25 58.23 C 166.44 61.94 158.74 62.19 154.40 57.60 C 150.49 53.44 150.85 46.56 154.22 42.18 C 158.70 36.28 166.11 33.55 173.17 32.28 C 184.44 30.60 195.96 31.70 207.08 33.92 C 211.49 34.68 215.61 36.71 220.10 37.04 C 219.17 36.26 218.26 35.39 217.08 35.02 C 189.88 26.24 160.12 25.91 132.62 33.59 Z"/>
<path fill="#fefffe" opacity="1.00" d=" M 136.34 89.34 C 142.42 86.14 150.19 85.18 156.39 88.56 C 161.35 91.40 163.29 97.55 162.80 102.98 C 161.92 113.76 156.71 123.70 150.16 132.12 C 143.08 140.68 134.35 148.26 123.89 152.32 C 124.69 155.66 127.21 159.22 130.99 159.20 C 137.61 159.44 143.35 155.26 148.11 151.10 C 151.53 148.50 151.71 143.95 153.31 140.28 C 155.64 134.54 158.81 128.42 164.59 125.52 C 167.30 124.08 171.44 123.80 173.31 126.69 C 175.35 130.59 173.50 135.06 171.54 138.59 C 168.86 143.71 164.62 147.72 161.25 152.33 C 159.98 156.61 159.75 161.11 159.67 165.55 C 164.35 163.48 168.55 160.53 172.96 157.97 C 180.63 153.01 188.59 148.39 195.71 142.65 C 196.53 139.88 195.41 136.86 195.54 133.98 C 195.10 120.04 199.92 105.75 209.42 95.44 C 215.33 89.21 224.23 84.82 232.93 87.01 C 238.15 87.96 242.24 92.20 243.71 97.19 C 245.57 104.72 242.99 112.59 239.03 119.00 C 232.21 129.67 222.29 137.82 212.25 145.32 C 213.59 148.66 215.50 152.45 219.11 153.69 C 224.28 152.70 229.54 151.29 234.83 152.34 C 238.37 153.08 242.62 154.14 244.35 157.67 C 245.95 161.11 242.89 164.63 239.75 165.70 C 233.07 167.88 226.00 166.65 219.18 166.13 C 211.06 168.07 204.00 173.44 198.94 179.98 C 191.08 190.31 188.65 203.98 190.36 216.65 C 191.99 227.16 197.27 237.75 206.55 243.46 C 217.00 250.15 232.06 248.73 240.72 239.70 C 248.89 231.27 251.47 217.85 246.92 207.02 C 244.99 202.26 240.84 198.20 235.64 197.39 C 229.57 196.02 222.36 199.97 221.48 206.42 C 220.60 211.38 224.08 215.49 227.02 219.04 C 229.29 221.39 229.56 225.73 226.74 227.76 C 222.37 230.75 216.31 228.65 212.83 225.18 C 204.24 216.70 204.51 201.39 212.74 192.73 C 223.20 180.73 244.03 180.50 254.73 192.32 C 266.17 204.99 267.61 225.30 258.81 239.82 C 252.21 251.22 240.31 259.45 227.23 261.31 C 213.00 263.42 197.63 258.91 187.63 248.36 C 168.07 228.44 168.38 193.41 187.04 173.00 C 192.03 167.03 198.62 162.78 205.23 158.84 C 203.80 156.91 202.30 155.03 200.78 153.16 C 187.94 162.47 174.51 170.93 160.69 178.70 C 158.35 179.56 158.77 182.38 158.43 184.37 C 157.20 201.38 155.75 219.11 147.29 234.31 C 141.57 245.05 132.92 254.89 121.32 259.31 C 112.12 262.78 100.99 263.09 92.55 257.50 C 84.47 252.43 80.80 242.31 81.42 233.09 C 82.70 221.36 89.37 210.77 97.85 202.81 C 109.49 192.18 123.60 184.83 137.45 177.53 C 140.27 175.96 143.34 174.77 145.86 172.74 C 146.79 170.20 146.93 167.47 147.19 164.81 C 140.01 169.15 130.94 172.64 122.68 169.31 C 115.93 166.71 111.73 160.25 109.58 153.63 C 103.21 152.95 96.80 150.41 92.74 145.27 C 85.66 136.78 85.21 123.87 90.33 114.30 C 92.04 110.85 95.88 109.00 99.64 109.23 C 100.37 110.71 101.74 112.18 101.24 113.98 C 100.12 120.19 97.94 126.64 100.00 132.93 C 101.02 137.23 104.58 140.66 109.00 141.25 C 109.94 131.07 111.92 120.85 116.71 111.70 C 121.22 102.80 127.38 94.17 136.34 89.34 M 142.33 99.30 C 136.29 103.41 132.61 109.98 129.43 116.37 C 126.01 123.58 123.25 131.33 122.94 139.37 C 125.25 138.35 127.43 137.02 129.30 135.31 C 136.86 128.73 143.47 120.89 147.90 111.85 C 149.46 108.58 150.81 104.87 149.92 101.21 C 148.77 98.24 144.76 97.46 142.33 99.30 M 220.50 102.44 C 213.44 110.66 209.56 121.56 209.68 132.39 C 217.64 125.82 224.98 118.12 229.93 108.99 C 231.35 106.07 233.23 101.30 229.63 99.17 C 226.35 97.48 222.65 99.96 220.50 102.44 M 113.45 207.49 C 106.51 213.72 99.74 220.98 97.22 230.19 C 96.01 235.13 95.73 241.37 99.88 245.05 C 104.26 249.05 110.86 247.86 115.92 245.96 C 125.68 242.20 131.57 232.75 135.54 223.57 C 140.17 212.17 143.04 200.03 144.21 187.78 C 133.13 192.90 122.78 199.64 113.45 207.49 Z"/>
</g>
<g id="#3a73b8ff">
<path fill="#3a73b8" opacity="1.00" d=" M 160.51 10.68 C 193.16 8.19 226.48 15.82 254.82 32.21 C 277.49 45.28 297.09 63.72 311.28 85.73 C 328.90 112.64 338.22 144.85 337.95 177.01 C 337.74 210.62 327.04 244.11 307.49 271.48 C 287.66 299.55 258.83 321.17 226.29 332.23 C 197.39 342.23 165.72 343.80 135.90 337.12 C 104.63 330.15 75.58 313.70 53.36 290.63 C 29.81 266.24 13.87 234.49 9.00 200.90 C 4.21 170.98 8.17 139.77 19.86 111.85 C 30.71 85.88 48.38 62.86 70.50 45.49 C 96.14 25.27 127.92 12.94 160.51 10.68 M 160.47 18.62 C 141.07 20.01 121.99 25.20 104.45 33.59 C 76.23 47.19 52.10 69.29 36.45 96.45 C 13.14 135.63 8.64 185.21 23.92 228.10 C 33.72 255.99 51.62 280.87 74.76 299.23 C 101.65 320.56 135.66 332.85 170.01 333.14 C 195.09 333.69 220.29 327.99 242.68 316.70 C 271.21 302.58 295.18 279.49 310.50 251.61 C 325.81 223.93 332.53 191.50 329.12 160.03 C 324.59 108.96 292.69 61.64 247.67 37.38 C 221.27 22.83 190.53 16.17 160.47 18.62 Z"/>
<path fill="#3a73b8" opacity="1.00" d=" M 132.62 33.59 C 160.12 25.91 189.88 26.24 217.08 35.02 C 218.26 35.39 219.17 36.26 220.10 37.04 C 215.61 36.71 211.49 34.68 207.08 33.92 C 195.96 31.70 184.44 30.60 173.17 32.28 C 166.11 33.55 158.70 36.28 154.22 42.18 C 150.85 46.56 150.49 53.44 154.40 57.60 C 158.74 62.19 166.44 61.94 171.25 58.23 C 176.93 54.06 182.44 49.09 189.53 47.54 C 203.94 43.97 219.05 46.84 233.01 50.99 C 249.77 55.56 265.62 63.83 278.48 75.56 C 299.91 94.49 312.79 121.67 317.68 149.54 C 321.94 173.32 320.66 198.17 313.28 221.21 C 313.02 222.29 312.33 222.92 311.21 223.09 C 315.49 207.40 318.67 190.75 315.47 174.55 C 313.79 166.73 309.94 157.91 301.71 155.24 C 295.41 153.01 287.74 157.34 287.23 164.19 C 286.03 171.52 292.02 176.80 295.75 182.29 C 303.76 193.79 302.77 208.70 300.81 221.89 C 297.13 239.75 291.17 257.53 280.35 272.41 C 263.65 296.38 237.05 312.20 208.94 318.96 C 184.51 324.80 158.62 324.76 134.23 318.75 C 131.02 317.79 127.37 317.36 124.88 314.90 C 129.53 314.89 133.84 316.91 138.39 317.63 C 150.82 319.89 163.81 321.29 176.23 318.18 C 181.86 316.63 187.56 313.95 191.10 309.13 C 194.38 304.63 194.31 297.74 190.28 293.72 C 186.79 290.04 180.98 289.28 176.52 291.60 C 171.22 294.47 167.17 299.19 161.76 301.90 C 150.85 307.20 138.19 306.42 126.55 304.46 C 107.25 300.67 88.18 293.67 72.62 281.36 C 51.96 265.48 37.65 242.32 30.64 217.38 C 23.22 191.27 23.17 163.21 29.94 136.96 C 31.11 134.24 30.66 129.95 33.76 128.66 C 29.80 143.66 26.67 159.38 29.08 174.92 C 30.30 181.82 32.72 189.13 38.43 193.61 C 42.39 196.88 48.58 198.08 52.96 194.94 C 57.63 192.21 59.17 185.73 57.00 180.94 C 54.72 175.54 50.09 171.61 47.44 166.41 C 41.71 155.94 42.34 143.44 43.86 131.98 C 47.06 113.62 53.29 95.48 64.12 80.16 C 80.20 56.86 105.51 40.91 132.62 33.59 M 136.34 89.34 C 127.38 94.17 121.22 102.80 116.71 111.70 C 111.92 120.85 109.94 131.07 109.00 141.25 C 104.58 140.66 101.02 137.23 100.00 132.93 C 97.94 126.64 100.12 120.19 101.24 113.98 C 101.74 112.18 100.37 110.71 99.64 109.23 C 95.88 109.00 92.04 110.85 90.33 114.30 C 85.21 123.87 85.66 136.78 92.74 145.27 C 96.80 150.41 103.21 152.95 109.58 153.63 C 111.73 160.25 115.93 166.71 122.68 169.31 C 130.94 172.64 140.01 169.15 147.19 164.81 C 146.93 167.47 146.79 170.20 145.86 172.74 C 143.34 174.77 140.27 175.96 137.45 177.53 C 123.60 184.83 109.49 192.18 97.85 202.81 C 89.37 210.77 82.70 221.36 81.42 233.09 C 80.80 242.31 84.47 252.43 92.55 257.50 C 100.99 263.09 112.12 262.78 121.32 259.31 C 132.92 254.89 141.57 245.05 147.29 234.31 C 155.75 219.11 157.20 201.38 158.43 184.37 C 158.77 182.38 158.35 179.56 160.69 178.70 C 174.51 170.93 187.94 162.47 200.78 153.16 C 202.30 155.03 203.80 156.91 205.23 158.84 C 198.62 162.78 192.03 167.03 187.04 173.00 C 168.38 193.41 168.07 228.44 187.63 248.36 C 197.63 258.91 213.00 263.42 227.23 261.31 C 240.31 259.45 252.21 251.22 258.81 239.82 C 267.61 225.30 266.17 204.99 254.73 192.32 C 244.03 180.50 223.20 180.73 212.74 192.73 C 204.51 201.39 204.24 216.70 212.83 225.18 C 216.31 228.65 222.37 230.75 226.74 227.76 C 229.56 225.73 229.29 221.39 227.02 219.04 C 224.08 215.49 220.60 211.38 221.48 206.42 C 222.36 199.97 229.57 196.02 235.64 197.39 C 240.84 198.20 244.99 202.26 246.92 207.02 C 251.47 217.85 248.89 231.27 240.72 239.70 C 232.06 248.73 217.00 250.15 206.55 243.46 C 197.27 237.75 191.99 227.16 190.36 216.65 C 188.65 203.98 191.08 190.31 198.94 179.98 C 204.00 173.44 211.06 168.07 219.18 166.13 C 226.00 166.65 233.07 167.88 239.75 165.70 C 242.89 164.63 245.95 161.11 244.35 157.67 C 242.62 154.14 238.37 153.08 234.83 152.34 C 229.54 151.29 224.28 152.70 219.11 153.69 C 215.50 152.45 213.59 148.66 212.25 145.32 C 222.29 137.82 232.21 129.67 239.03 119.00 C 242.99 112.59 245.57 104.72 243.71 97.19 C 242.24 92.20 238.15 87.96 232.93 87.01 C 224.23 84.82 215.33 89.21 209.42 95.44 C 199.92 105.75 195.10 120.04 195.54 133.98 C 195.41 136.86 196.53 139.88 195.71 142.65 C 188.59 148.39 180.63 153.01 172.96 157.97 C 168.55 160.53 164.35 163.48 159.67 165.55 C 159.75 161.11 159.98 156.61 161.25 152.33 C 164.62 147.72 168.86 143.71 171.54 138.59 C 173.50 135.06 175.35 130.59 173.31 126.69 C 171.44 123.80 167.30 124.08 164.59 125.52 C 158.81 128.42 155.64 134.54 153.31 140.28 C 151.71 143.95 151.53 148.50 148.11 151.10 C 143.35 155.26 137.61 159.44 130.99 159.20 C 127.21 159.22 124.69 155.66 123.89 152.32 C 134.35 148.26 143.08 140.68 150.16 132.12 C 156.71 123.70 161.92 113.76 162.80 102.98 C 163.29 97.55 161.35 91.40 156.39 88.56 C 150.19 85.18 142.42 86.14 136.34 89.34 Z"/>
<path fill="#3a73b8" opacity="1.00" d=" M 142.33 99.30 C 144.76 97.46 148.77 98.24 149.92 101.21 C 150.81 104.87 149.46 108.58 147.90 111.85 C 143.47 120.89 136.86 128.73 129.30 135.31 C 127.43 137.02 125.25 138.35 122.94 139.37 C 123.25 131.33 126.01 123.58 129.43 116.37 C 132.61 109.98 136.29 103.41 142.33 99.30 Z"/>
<path fill="#3a73b8" opacity="1.00" d=" M 220.50 102.44 C 222.65 99.96 226.35 97.48 229.63 99.17 C 233.23 101.30 231.35 106.07 229.93 108.99 C 224.98 118.12 217.64 125.82 209.68 132.39 C 209.56 121.56 213.44 110.66 220.50 102.44 Z"/>
<path fill="#3a73b8" opacity="1.00" d=" M 113.45 207.49 C 122.78 199.64 133.13 192.90 144.21 187.78 C 143.04 200.03 140.17 212.17 135.54 223.57 C 131.57 232.75 125.68 242.20 115.92 245.96 C 110.86 247.86 104.26 249.05 99.88 245.05 C 95.73 241.37 96.01 235.13 97.22 230.19 C 99.74 220.98 106.51 213.72 113.45 207.49 Z"/>
</g>
</svg>