<?xml version="1.0" encoding="UTF-8" standalone="no"?>
<!-- Created with Inkscape (http://www.inkscape.org/) -->

<svg
   xmlns:dc="http://purl.org/dc/elements/1.1/"
   xmlns:cc="http://creativecommons.org/ns#"
   xmlns:rdf="http://www.w3.org/1999/02/22-rdf-syntax-ns#"
   xmlns:svg="http://www.w3.org/2000/svg"
   xmlns="http://www.w3.org/2000/svg"
   version="1.1"
   width="500"
   height="500"
   id="svg3407">
  <defs
     id="defs3409" />
  <metadata
     id="metadata3412">
    <rdf:RDF>
      <cc:Work
         rdf:about="">
        <dc:format>image/svg+xml</dc:format>
        <dc:type
           rdf:resource="http://purl.org/dc/dcmitype/StillImage" />
        <dc:title></dc:title>
      </cc:Work>
    </rdf:RDF>
  </metadata>
  <g
     transform="translate(0,-552.36218)"
     id="layer1">
    <g
       transform="matrix(0.8439546,0,0,0.78306363,13.410706,580.63268)"
       id="g5578"
       style="overflow:visible">
      <path
         d="m 547.54537,283.04297 c 0,149.06302 -120.859,269.91802 -269.924,269.91802 -149.06495,0 -269.9119468,-120.856 -269.9119468,-269.91802 0,-149.07009 120.8479968,-269.919091 269.9119468,-269.919091 149.064,0 269.924,120.849001 269.924,269.919091 z"
         id="path3005"
         style="fill:#000000" />
      <path
         d="m 278.3029,-1.5444186 c -156.96172,0 -284.2145666,127.1352486 -284.2145666,283.9716186 0,156.83436 127.2528466,283.97062 284.2145666,283.97062 156.9738,0 284.21455,-127.13626 284.21455,-283.97062 0,-156.83637 -127.24075,-283.9716186 -284.21455,-283.9716186 z m 0,553.7416886 C 129.18111,552.19727 8.3118611,431.41813 8.3118611,282.4272 8.3118611,133.43628 129.18111,12.651092 278.3029,12.651092 c 149.12179,0 270.00211,120.785188 270.00211,269.776108 0,148.99093 -120.88032,269.77007 -270.00211,269.77007 z"
         id="path3003"
         style="fill:none;stroke:#999999;stroke-width:1.51111484;stroke-miterlimit:4;stroke-opacity:1;stroke-dasharray:none" />
      <g
         id="g5540">
        <g
           transform="translate(-3.93499,0.3735)"
           id="g3049"
           style="fill:#ffffff;fill-opacity:1;stroke:none">
          <radialGradient
             cx="-75.464798"
             cy="-22.1509"
             r="962.69598"
             id="XMLID_21_"
             gradientUnits="userSpaceOnUse">
            <stop
               id="stop3052"
               style="stop-color:#ffffff;stop-opacity:1"
               offset="0" />
            <stop
               id="stop3054"
               style="stop-color:#fdfdfd;stop-opacity:1"
               offset="0.31020001" />
            <stop
               id="stop3056"
               style="stop-color:#f6f6f6;stop-opacity:1"
               offset="0.45050001" />
            <stop
               id="stop3058"
               style="stop-color:#e9e9e9;stop-opacity:1"
               offset="0.55669999" />
            <stop
               id="stop3060"
               style="stop-color:#d7d7d7;stop-opacity:1"
               offset="0.64560002" />
            <stop
               id="stop3062"
               style="stop-color:#bfbfbf;stop-opacity:1"
               offset="0.7238" />
            <stop
               id="stop3064"
               style="stop-color:#a2a2a2;stop-opacity:1"
               offset="0.79439998" />
            <stop
               id="stop3066"
               style="stop-color:#808080;stop-opacity:1"
               offset="0.85930002" />
            <stop
               id="stop3068"
               style="stop-color:#575757;stop-opacity:1"
               offset="0.9199" />
            <stop
               id="stop3070"
               style="stop-color:#2b2b2b;stop-opacity:1"
               offset="0.97460002" />
            <stop
               id="stop3072"
               style="stop-color:#141414;stop-opacity:1"
               offset="1" />
          </radialGradient>
          <polygon
             points="281.512,74.687 281.695,74.687 262.328,23.981 241.031,23.981 241.031,94.802 255.201,94.802 255.201,45.353 273.859,94.802 289.35,94.802 308.008,45.353 308.008,94.802 322.178,94.802 322.178,23.981 300.881,23.981 "
             id="polygon3074"
             style="fill:#ffffff;fill-opacity:1;stroke:none" />
        </g>
        <g
           transform="translate(-3.93499,0.3735)"
           id="g3076"
           style="fill:#ffffff;fill-opacity:1;stroke:none">
          <radialGradient
             cx="-75.514603"
             cy="-22.1499"
             r="962.79437"
             id="XMLID_22_"
             gradientUnits="userSpaceOnUse">
            <stop
               id="stop3079"
               style="stop-color:#ffffff;stop-opacity:1"
               offset="0" />
            <stop
               id="stop3081"
               style="stop-color:#fdfdfd;stop-opacity:1"
               offset="0.31020001" />
            <stop
               id="stop3083"
               style="stop-color:#f6f6f6;stop-opacity:1"
               offset="0.45050001" />
            <stop
               id="stop3085"
               style="stop-color:#e9e9e9;stop-opacity:1"
               offset="0.55669999" />
            <stop
               id="stop3087"
               style="stop-color:#d7d7d7;stop-opacity:1"
               offset="0.64560002" />
            <stop
               id="stop3089"
               style="stop-color:#bfbfbf;stop-opacity:1"
               offset="0.7238" />
            <stop
               id="stop3091"
               style="stop-color:#a2a2a2;stop-opacity:1"
               offset="0.79439998" />
            <stop
               id="stop3093"
               style="stop-color:#808080;stop-opacity:1"
               offset="0.85930002" />
            <stop
               id="stop3095"
               style="stop-color:#575757;stop-opacity:1"
               offset="0.9199" />
            <stop
               id="stop3097"
               style="stop-color:#2b2b2b;stop-opacity:1"
               offset="0.97460002" />
            <stop
               id="stop3099"
               style="stop-color:#141414;stop-opacity:1"
               offset="1" />
          </radialGradient>
          <polygon
             points="459.205,133.94 459.068,133.763 420.467,150.286 408.248,135.735 448.604,82.306 458.918,94.677 433.652,128.704 472.744,111.267 483.807,124.544 459.607,159.845 497.633,141.136 507.938,153.511 448.098,183.562 436.004,168.915 "
             id="polygon3101"
             style="fill:#ffffff;fill-opacity:1;stroke:none" />
        </g>
        <path
           d="m 150.10801,114.7455 c -5.691,-5.537 -14.504,-7.207 -22.766,-2.082 3.08486,-8.28427 -2.51898,-16.0419 -7.652,-20.345 -9.512,-7.975 -19.508,-1.166 -26.645,7.361 l -34.572,41.182 54.332,45.582 36.443,-43.432 c 8.319,-9.926 9.614,-19.758 0.86,-28.266 z m -70.281,19.861 20.758,-24.732 c 2.398,-2.869 7.836,-2.754 11.336,0.176 3.844,3.23 3.855,7.805 1.262,10.873 l -20.516,24.459 z m 57.281,4.114 -21.641,25.789 -13.574,-11.389 21.813,-25.996 c 2.467,-2.93 7.951,-3.785 11.658,-0.676 4.199,3.516 4.611,8.848 1.744,12.272 z"
           id="path3126"
           style="fill:#ffffff;fill-opacity:1;stroke:none" />
      </g>
      <g
         id="g5571">
        <path
           d="m 108.06315,274.23599 h 168.904 V 105.332 c -93.287,0 -168.904,75.61699 -168.904,168.90399 z"
           id="path3209"
           style="fill:#3392c2;fill-opacity:1" />
        <path
           d="m 279.63664,276.97 v 168.904 c 93.287,0 168.904,-75.629 168.904,-168.904 h -168.904 z"
           id="path3244"
           style="fill:#3392c2;fill-opacity:1" />
        <path
           d="M 277.73769,275.90224 V 105.93983 c 93.287,0 168.904,76.10292 168.904,169.96241 h -168.904 z"
           id="path3244-4"
           style="fill:#ffffff;fill-opacity:1;stroke:#999999;stroke-width:1.00312829;stroke-opacity:1" />
        <path
           d="M 275.04216,274.54899 V 444.453 c -91.18382,0 -165.09601,-76.07677 -165.09601,-169.90401 h 165.09601 z"
           id="path3244-9"
           style="fill:#ffffff;fill-opacity:1;stroke:#999999;stroke-opacity:1" />
        <polygon
           points="279.012,284.993 279.012,452.306 285,452.306 285,284.993 452.309,284.993 452.309,279.001 285,279.001 285,111.692 279.012,111.692 279.012,279.001 111.703,279.001 111.703,284.993 "
           transform="translate(-3.6503202,-6.4334715)"
           id="polygon3259"
           style="fill:#999999;stroke:none" />
      </g>
      <path
         d="m 109.15615,275.22055 c 0,-93.74083 75.9277,-169.73575 169.59433,-169.73575 93.66661,0 169.60538,75.99592 169.60538,169.73575 0,93.73986 -75.93977,169.73576 -169.60538,169.73576 -93.66562,0 -169.59433,-75.99491 -169.59433,-169.73576 z"
         id="path3172"
         style="fill:none;stroke:#999999;stroke-width:4;stroke-miterlimit:4;stroke-opacity:1;stroke-dasharray:none" />
    </g>
  </g>
</svg>
